<?xml version="1.0" standalone="no"?>
<!DOCTYPE svg PUBLIC "-//W3C//DTD SVG 20010904//EN"
 "http://www.w3.org/TR/2001/REC-SVG-20010904/DTD/svg10.dtd">
<svg version="1.0" xmlns="http://www.w3.org/2000/svg"
 width="840.000000pt" height="880.000000pt" viewBox="0 0 840.000000 880.000000"
 preserveAspectRatio="xMidYMid meet">
<metadata>
Created by potrace 1.16, written by Peter Selinger 2001-2019
</metadata>
<g transform="translate(0.000000,880.000000) scale(0.100000,-0.100000)"
fill="#000000" stroke="none">
<path d="M3955 8394 c-22 -2 -92 -9 -155 -14 -907 -84 -1776 -490 -2421 -1132
-964 -960 -1370 -2324 -1094 -3679 296 -1454 1400 -2631 2835 -3024 664 -181
1381 -191 2050 -29 1125 274 2074 1027 2596 2059 416 823 537 1765 344 2676
-314 1484 -1441 2654 -2910 3024 -180 45 -410 87 -585 105 -102 11 -587 21
-660 14z m415 -1609 c408 -61 752 -340 897 -725 47 -123 64 -210 70 -352 11
-258 -46 -465 -188 -683 -61 -95 -218 -253 -309 -313 -315 -207 -681 -252
-1032 -127 -319 114 -597 404 -696 727 -109 352 -45 736 171 1023 257 343 670
514 1087 450z m235 -2869 c368 -56 651 -143 963 -296 376 -184 671 -398 984
-713 123 -124 153 -159 182 -220 64 -131 66 -267 5 -397 -24 -53 -52 -87 -151
-183 -263 -257 -587 -489 -918 -656 -345 -175 -650 -274 -1030 -334 -186 -29
-699 -32 -885 -4 -492 74 -915 226 -1299 466 -264 166 -443 313 -684 565 -128
133 -174 259 -151 409 18 120 64 190 227 354 356 357 721 608 1153 792 277
117 610 202 910 231 138 13 574 4 694 -14z"/>
</g>
</svg>
